<svg xmlns="http://www.w3.org/2000/svg" fill="none" viewBox="0 0 172 64">
  <path fill="#001C64" d="M37.574 22.495c-1.015 5.805-5.755 10.193-11.972 10.193h-3.947c-.803 0-1.617.743-1.747 1.566L18.18 45.22c-.1.623-.391.834-1.024.834h-6.337c-.643 0-.794-.211-.693-.844l.723-7.581-7.613-.392c-.643 0-.884-.352-.783-.984L7.635 3.295c.1-.622.492-.893 1.115-.893h13.176c6.348 0 10.355 4.267 10.847 9.81 3.776 2.551 5.544 5.945 4.78 10.293l.02-.01Z"/>
  <path fill="#0070E0" d="M12.777 25.347 9.624 45.321c-.1.632.391 1.205 1.034 1.205h6.699c.633 0 1.165-.462 1.265-1.085l1.768-11.197c.1-.622.633-1.084 1.265-1.084h3.947a12.59 12.59 0 0 0 12.444-10.675c.683-4.358-1.507-8.324-5.263-10.292 0 .451-.05.913-.12 1.385-.965 6.146-6.237 10.675-12.444 10.675h-6.176c-.633 0-1.165.462-1.266 1.084v.01Z"/>
  <path fill="#003087" d="M10.839 37.629H3.045a1.05 1.05 0 0 1-1.034-1.206L7.274 3.085C7.374 2.462 7.906 2 8.539 2h13.397c6.348 0 10.958 4.62 10.847 10.203-1.577-.824-3.435-1.306-5.463-1.306H16.152c-.633 0-1.165.462-1.266 1.085l-2.109 13.355-1.938 12.271v.02Zm52.445-8.637c5.042 0 9.32-3.675 10.103-8.666.794-5.02-3.143-9.409-8.707-9.419h-8.969a.702.702 0 0 0-.692.593L51.01 36.875a.653.653 0 0 0 .643.754h4.75a.702.702 0 0 0 .693-.593l1.175-7.451a.702.702 0 0 1 .694-.593h4.318Zm3.967-8.887c-.291 1.858-1.727 3.224-4.48 3.224h-3.514l1.064-6.758h3.455c2.842 0 3.766 1.677 3.475 3.534ZM93.956 18.9h-4.51a.702.702 0 0 0-.693.593l-.15.934s-3.495-3.816-9.692-1.245c-3.555 1.476-5.252 4.539-5.975 6.768 0 0-2.31 6.798 2.902 10.544 0 0 4.83 3.595 10.264-.221l-.09.592a.653.653 0 0 0 .642.753h4.5a.702.702 0 0 0 .693-.592l2.742-17.383a.653.653 0 0 0-.643-.753l.01.01Zm-6.619 9.61c-.391 2.49-2.44 4.329-5.061 4.329-.513 0-.995-.07-1.416-.211-1.939-.623-3.054-2.49-2.732-4.52.391-2.49 2.44-4.327 5.061-4.327.513 0 .995.07 1.417.21 1.938.623 3.043 2.491 2.721 4.52h.01Z"/>
  <path fill="#0070E0" d="M128.173 28.992c5.041 0 9.32-3.675 10.103-8.666.794-5.02-3.133-9.409-8.707-9.419H120.6a.702.702 0 0 0-.693.593L115.9 36.875a.653.653 0 0 0 .643.754h4.75a.701.701 0 0 0 .693-.593l1.175-7.451a.702.702 0 0 1 .693-.593h4.319Zm3.967-8.887c-.292 1.858-1.728 3.224-4.479 3.224h-3.516l1.065-6.758h3.455c2.842 0 3.766 1.677 3.475 3.534Zm26.694-1.205h-4.509a.702.702 0 0 0-.693.593l-.151.934s-3.495-3.816-9.691-1.245c-3.555 1.476-5.253 4.539-5.976 6.768 0 0-2.31 6.798 2.903 10.544 0 0 4.83 3.595 10.264-.221l-.091.592a.653.653 0 0 0 .643.753h4.499a.701.701 0 0 0 .693-.592l2.742-17.383a.653.653 0 0 0-.643-.753l.01.01Zm-6.618 9.61c-.392 2.49-2.441 4.329-5.062 4.329-.512 0-.994-.07-1.416-.211-1.938-.623-3.053-2.49-2.732-4.52.392-2.49 2.441-4.327 5.062-4.327.512 0 .994.07 1.416.21 1.939.623 3.043 2.491 2.722 4.52h.01Z"/>
  <path fill="#003087" d="m110.487 19.332-5.434 9.168-2.751-9.098a.7.7 0 0 0-.673-.502h-4.901a.528.528 0 0 0-.502.693l4.941 15.324-4.47 7.22c-.22.352.03.804.442.804h5.283a.88.88 0 0 0 .753-.422l13.8-22.815a.523.523 0 0 0-.452-.794h-5.273a.867.867 0 0 0-.753.432l-.01-.01Z"/>
  <path fill="#0070E0" d="m163.906 11.5-4.007 25.375a.653.653 0 0 0 .643.754h4.75a.701.701 0 0 0 .693-.593l4.007-25.376a.653.653 0 0 0-.642-.753h-4.751a.702.702 0 0 0-.693.593Z"/>
  <path fill="#003087" d="M84.636 61.177V47.259c0-.312.17-.482.482-.482h3.053c4.248 0 6.407.773 6.407 3.685 0 1.747-1.104 2.832-2.25 3.203 1.266.372 2.933 1.456 2.933 3.726 0 3.615-3.203 4.268-5.995 4.268h-4.158c-.312 0-.482-.171-.482-.482h.01Zm4.79-8.405c1.647-.08 2.521-.502 2.521-1.918 0-1.517-1.185-1.768-2.892-1.768h-1.808v3.686h2.19-.01Zm-.622 6.597c2.149 0 3.826-.271 3.826-2.179 0-1.627-1.336-2.149-3.083-2.149h-2.31v4.328h1.567Zm8.546-8.164c0-.311.151-.482.462-.482h1.437c.31 0 .482.17.482.482v.251c0 .251 0 .502-.02.733.371-1.105 1.395-1.727 2.641-1.727.392 0 .643.12.643.502v1.496c0 .251-.101.442-.352.442-.171 0-.331-.06-.663-.06-1.627 0-2.079 1.416-2.079 3.665v4.68c0 .31-.17.482-.482.482h-1.587c-.31 0-.482-.171-.482-.482v-9.982Zm6.267 7.411c0-2.29 2.431-3.143 4.761-3.475.914-.15 2.37-.27 2.5-.29-.04-1.808-.682-2.501-2.119-2.501-1.225 0-1.898.542-2.119 1.355-.08.292-.231.442-.522.442h-1.476c-.332 0-.462-.12-.462-.351 0-.15.06-.372.1-.522.482-1.667 2.059-2.892 4.54-2.892 2.661 0 4.519 1.104 4.519 4.83v3.052c0 1.205.04 1.938.121 2.661.02.151.06.312.06.412 0 .231-.171.311-.462.311h-1.376c-.291 0-.482-.15-.502-.441a7.304 7.304 0 0 1-.061-1.025c-.602.894-1.857 1.667-3.615 1.667-2.27 0-3.887-1.185-3.887-3.243v.01Zm7.282-1.536s0-.252.02-.462l-.563.06c-2.762.311-4.037.713-4.037 1.868 0 1.004.753 1.496 1.898 1.496 1.828 0 2.682-1.125 2.682-2.973v.01Zm4.931-8.405v-1.416c0-.312.17-.482.482-.482h1.647c.311 0 .482.17.482.482v1.416c0 .31-.171.482-.482.482h-1.647c-.312 0-.482-.171-.482-.482Zm.04 12.502v-9.972c0-.311.171-.482.482-.482h1.587c.311 0 .482.17.482.482v9.972c0 .31-.171.482-.482.482h-1.587c-.311 0-.482-.171-.482-.482Zm5.202 0v-9.972c-.02-.311.151-.482.462-.482h1.477c.311 0 .482.17.482.482v.19c0 .232-.02.463-.02.684 0 .01 0 .02.02.02.662-1.004 1.727-1.727 3.414-1.727 2.501 0 3.957 1.687 3.957 4.498v6.307c0 .31-.17.482-.482.482h-1.577c-.311 0-.482-.171-.482-.482v-5.162c0-2.149-.522-3.515-2.229-3.515-1.708 0-2.471 1.356-2.471 3.053v5.624c0 .31-.171.482-.482.482h-1.587c-.311 0-.482-.171-.482-.482Zm12.855-2.26v-6.286h-1.165c-.311 0-.482-.17-.482-.482v-.934c0-.311.171-.482.482-.482h1.165v-2.47c0-.311.171-.482.483-.482h1.576c.312 0 .482.17.482.482v2.47h1.567c.311 0 .482.17.482.482v.934c0 .311-.171.482-.482.482h-1.567v5.885c0 1.024.312 1.355 1.065 1.355.211 0 .271-.02.412-.02.271 0 .411.12.411.502v.974c0 .522-.371.543-.954.543-2.209 0-3.475-.663-3.475-2.953Zm6.328-7.712c0-.311.15-.482.462-.482h1.436c.311 0 .482.17.482.482v.251c0 .251 0 .502-.02.733.371-1.105 1.396-1.727 2.641-1.727.392 0 .643.12.643.502v1.496c0 .251-.101.442-.352.442-.17 0-.331-.06-.663-.06-1.626 0-2.078 1.416-2.078 3.665v4.68c0 .31-.171.482-.483.482h-1.586c-.312 0-.482-.171-.482-.482v-9.982Zm6.327 4.961c0-3.324 2.249-5.804 5.574-5.804 3.495 0 5.353 2.6 5.353 5.784v.21c0 .312-.211.483-.502.483l-7.884-.02c.17 1.787 1.376 3.082 3.143 3.082 1.065 0 1.808-.391 2.29-1.044.171-.211.331-.311.583-.311h1.586c.271 0 .462.12.462.29 0 .061 0 .121-.15.413-.754 1.496-2.391 2.751-4.831 2.751-3.415 0-5.624-2.41-5.624-5.824v-.01ZM154.968 55c-.171-1.496-1.205-2.661-2.832-2.661-1.627 0-2.722.934-2.933 2.66h5.765Zm3.726 1.166c0-3.324 2.249-5.804 5.574-5.804 3.495 0 5.353 2.6 5.353 5.784v.21c0 .312-.211.483-.502.483l-7.884-.02c.17 1.787 1.376 3.082 3.143 3.082 1.065 0 1.808-.391 2.29-1.044.171-.211.331-.311.583-.311h1.586c.272 0 .462.12.462.29 0 .061 0 .121-.15.413-.754 1.496-2.391 2.751-4.831 2.751-3.415 0-5.624-2.41-5.624-5.824v-.01ZM167.08 55c-.171-1.496-1.205-2.661-2.832-2.661-1.627 0-2.722.934-2.933 2.66h5.765Z"/>
</svg>
