<svg width="141" height="32" viewBox="0 0 141 32" fill="none" xmlns="http://www.w3.org/2000/svg">
<g clip-path="url(#clip0_5_85)">
<path d="M50.4124 25.4979V6.9266H54.6358V9.29369C55.6996 7.38731 58.0336 6.40234 60.1295 6.40234C62.5747 6.40234 64.7023 7.5144 65.6867 9.67497C67.1315 7.22844 69.3068 6.40234 71.7043 6.40234C75.0545 6.40234 78.2618 8.53114 78.2618 13.456V25.4979H73.9907V14.1709C73.9907 11.9944 72.8793 10.3581 70.4024 10.3581C68.0842 10.3581 66.56 12.185 66.56 14.4727V25.4979H62.2253V14.1709C62.2253 12.0421 61.1615 10.3581 58.637 10.3581C56.2712 10.3581 54.7946 12.1056 54.7946 14.4727V25.4979H50.4124Z" fill="white"/>
<path d="M100.252 20.1919C99.268 23.4327 96.3306 26.0699 91.869 26.0699C86.8358 26.0699 82.3741 22.416 82.3741 16.1249C82.3741 10.2469 86.7246 6.37061 91.4085 6.37061C97.1245 6.37061 100.475 10.1516 100.475 16.0137C100.475 16.7445 100.395 17.3482 100.364 17.4276H86.804C86.9152 20.2554 89.1222 22.273 91.869 22.273C94.5364 22.273 95.9019 20.8591 96.5212 19.0322L100.252 20.1919ZM96.0289 14.1709C95.9496 11.9944 94.5047 10.0563 91.4562 10.0563C88.6776 10.0563 87.0739 12.1851 86.9152 14.1709H96.0289Z" fill="white"/>
<path d="M121.481 20.1919C120.496 23.4327 117.559 26.0699 113.097 26.0699C108.064 26.0699 103.603 22.416 103.603 16.1249C103.603 10.2469 107.953 6.37061 112.637 6.37061C118.353 6.37061 121.703 10.1516 121.703 16.0137C121.703 16.7445 121.624 17.3482 121.592 17.4276H108.032C108.144 20.2554 110.351 22.273 113.097 22.273C115.765 22.273 117.13 20.8591 117.75 19.0322L121.481 20.1919ZM117.257 14.1709C117.178 11.9944 115.733 10.0563 112.685 10.0563C109.906 10.0563 108.302 12.1851 108.144 14.1709H117.257Z" fill="white"/>
<path d="M124.99 25.4981V21.6377L134.405 10.8031H125.18V6.92676H139.962V10.6601L130.436 21.6059H140.153V25.4981H124.99Z" fill="white"/>
</g>
<g clip-path="url(#clip1_5_85)">
<path d="M9.94041 5.00711C9.94041 2.24176 7.71517 0 4.9702 0C2.22524 0 0 2.24176 0 5.00711V26.9929C0 29.7582 2.22524 32 4.9702 32C7.71517 32 9.94041 29.7582 9.94041 26.9929V5.00711Z" fill="#40B49A"/>
<path d="M23.857 5.00711C23.857 2.24176 21.6318 0 18.8868 0C16.1419 0 13.9166 2.24176 13.9166 5.00711V16.9929C13.9166 19.7582 16.1419 22 18.8868 22C21.6318 22 23.857 19.7582 23.857 16.9929V5.00711Z" fill="#3B457D"/>
<path d="M36.7795 4.5064C36.7795 2.01758 34.7768 0 32.3063 0C29.8358 0 27.8331 2.01758 27.8331 4.5064V27.4936C27.8331 29.9824 29.8358 32 32.3063 32C34.7768 32 36.7795 29.9824 36.7795 27.4936V4.5064Z" fill="#F7B500"/>
</g>
<defs>
<clipPath id="clip0_5_85">
<rect width="89.7406" height="19.7152" fill="white" transform="translate(50.4122 6.35474)"/>
</clipPath>
<clipPath id="clip1_5_85">
<rect width="36.7795" height="32" fill="white"/>
</clipPath>
</defs>
</svg>
