<?xml version="1.0" encoding="UTF-8"?>
<svg id="Layer_1" xmlns="http://www.w3.org/2000/svg" viewBox="0 0 1920 411.02">
  <defs>
    <style>
      .cls-1 {
        fill: #0d0d0b;
      }
    </style>
  </defs>
  <path class="cls-1" d="M303.57,174.31c13.54,54.78,5.39,87.21-5.68,104.09-10.75,16.39-26.96,22.64-42.43,21.19-15.77-1.48-30.84-10.97-38.46-27.96-7.55-16.85-9.96-46.48,12.02-90.66,22.55-45.34,25.1-88.28,8.3-122.73C220.61,24,187.73,4.45,153.04.68c-34.8-3.77-72.19,8.02-101.28,36.25C22.51,65.31,3.41,108.4.39,164.81c-3.77,70.61,19.01,158.8,106.45,246.21l45.84-45.82c-74.61-74.59-90.34-144.93-87.56-196.94,2.33-43.57,16.52-70.03,31.79-84.84,15.41-14.95,33.75-19.99,49.14-18.33,15.5,1.68,27.29,9.85,32.99,21.52,5.59,11.46,8.26,32.62-8.08,65.49-27.84,55.98-30.84,106.5-13.12,146.01,17.65,39.36,53.71,62.44,91.58,65.98,38.17,3.57,78.12-12.72,102.68-50.18,24.24-36.97,30.58-89.7,14.4-155.16l-62.93,15.54Z"/>
  <path class="cls-1" d="M717.96,276.92c-8.79,0-14.52-3.82-20.63-15.28l-28.65-50.05c37.06-8.41,64.19-37.06,64.19-81.38,0-52.72-38.59-86.35-87.11-86.35h-131.81v277h53.87v-104.3h44.32l37.82,68.77c16.05,30.95,34.39,39.35,59.22,39.35,17.57,0,32.48-4.97,44.32-12.23l-15.28-41.65c-7.26,4.2-13.75,6.11-20.25,6.11ZM640.4,169.18h-72.59v-77.94h72.59c22.92,0,38.97,15.66,38.97,38.97s-16.05,38.97-38.97,38.97Z"/>
  <path class="cls-1" d="M856.54,115.69c-58.84,0-103.92,41.26-103.92,104.69s44.32,104.3,102.78,104.3c45.85,0,79.47-23.31,94.75-59.22l-45.85-17.19c-8.79,20.25-24.45,30.95-48.52,30.95-25.6,0-46.23-16.43-49.67-49.29h149.01v-13.37c0-64.95-38.97-100.86-98.57-100.86ZM809.16,196.3c7.26-23.69,25.98-35.15,47.38-35.15s37.44,11.84,43.17,35.15h-90.55Z"/>
  <path class="cls-1" d="M1079.88,162.68c22.92,0,42.03,11.84,48.14,36.3l52.72-9.55c-10.32-48.52-49.29-73.74-100.86-73.74-58.46,0-105.07,38.97-105.07,104.69s46.61,104.3,105.07,104.3c51.58,0,90.55-25.22,100.86-73.74l-52.72-9.17c-6.11,24.07-25.22,35.91-48.14,35.91-29.04,0-51.96-17.96-51.96-57.31s22.92-57.69,51.96-57.69Z"/>
  <path class="cls-1" d="M1867.28,119.51v110.42c0,25.98-17.96,43.17-43.94,43.17-27.9,0-42.03-17.19-42.03-43.56v-110.03h-53.11v112.71c0,51.2,32.09,82.91,77.94,82.91,27.89,0,48.14-10.32,61.13-27.13v21.01c0,40.12-24.08,55.4-54.64,55.4-26.61,0-43.62-10.46-57.58-30.88l-38.26,32.23c22.21,30.73,55.01,45.26,98.14,45.26,60.75,0,105.07-33.24,105.07-102.01V119.51h-52.72Z"/>
  <path class="cls-1" d="M1710.75,273.86c-5.73,2.67-11.07,3.82-16.8,3.82-11.09,0-16.81-5.73-16.81-19.48V29.34h-53.11v234.59c0,45.08,27.51,60.75,60.36,60.75,15.29,0,29.42-4.2,40.89-10.32l-14.53-40.5Z"/>
  <path class="cls-1" d="M1527.59,116.07c-22.16,0-38.21,9.55-48.52,24.07v-20.63h-48.14v201.35h53.11v-122.26c0-24.07,11.85-37.06,31.71-37.06,21.02,0,31.71,12.23,31.71,38.59v3.06l51.2-4.59v-9.55c0-46.23-29.8-72.97-71.06-72.97Z"/>
  <path class="cls-1" d="M1343.67,235.65c0,25.98-17.96,43.56-42.4,43.56s-43.18-17.57-43.18-43.56v-116.15h-53.11v122.64c0,48.14,31.71,82.53,80.23,82.53,28.28,0,48.52-12.61,61.13-31.33v27.51h50.43V119.51h-53.11v116.15Z"/>
</svg>